# xmcd CD database file
#
# Track frame offsets:
#	150
#	10175
#	40671
#	62570
#	73332
#	92124
#	123368
#	147138
#	172536
#	201522
#	232768
#
# Disc length: 3364 seconds
#
# Revision: 0
# Processed by: cddbd v1.5.2PL0 Copyright (c) Steve Scherf et al.
# Submitted via: CDex 1.70beta2
#
DISCID=8b0d220b
DTITLE=Junk Box - Cloudy then Sunny
DYEAR=2008
DGENRE=Jazz
TTITLE0=Computer Virus
TTITLE1=Chilly Wind
TTITLE2=Back and Forth
TTITLE3=Night Came in Manhattan
TTITLE4=Chinese Kitchen
TTITLE5=Multiple Personalities
TTITLE6=Opera by Rats
TTITLE7=Alligators Running in the Sewers
TTITLE8=Solidier's Depression
TTITLE9=One Equation
TTITLE10=Cloudy then Sunny
EXTD=YEAR: 2008
EXTT0=
EXTT1=
EXTT2=
EXTT3=
EXTT4=
EXTT5=
EXTT6=
EXTT7=
EXTT8=
EXTT9=
EXTT10=
PLAYORDER=
